<svg width="512" height="512" fill="none" xmlns="http://www.w3.org/2000/svg"><circle cx="256" cy="256" r="256" fill="#336C8F"/><path d="M406.706 346.373c19.744 0 34.892-6.475 45.443-19.424 10.472-13.03 15.707-31.574 15.707-55.635v-29.375c0-23.981-5.435-42.446-16.306-55.395C440.679 173.515 425.571 167 406.227 167c-.562 0-1.066.005-1.619.014 5.307 11.112 6.422 17.747 7.68 29.767 6.291 1.173 10.945 4.316 13.962 9.427 3.917 6.554 5.996 17.386 6.235 32.493v32.973c0 17.346-1.918 29.256-5.755 35.731-2.549 4.214-6.267 7.057-11.154 8.528-3.347 13.422-6.275 20.079-13.021 30.354a99.14 99.14 0 004.151.086zM105.15 346.373c-19.744 0-34.892-6.475-45.443-19.424C49.236 313.919 44 295.375 44 271.314v-29.375c0-23.981 5.435-42.446 16.307-55.395C71.177 173.515 86.285 167 105.629 167c.562 0 1.066.005 1.62.014-5.308 11.112-6.422 17.747-7.68 29.767-6.292 1.173-10.946 4.316-13.963 9.427-3.917 6.554-5.995 17.386-6.235 32.493v32.973c0 17.346 1.918 29.256 5.755 35.731 2.55 4.214 6.268 7.057 11.154 8.528 3.347 13.422 6.275 20.079 13.021 30.354a99.14 99.14 0 01-4.151.086z" fill="#DBB839"/><path d="M313.539 320.613h72.317v32.218H272.335V160.577h41.204v160.036zM216.058 302.617c0-7.952-2.102-13.938-6.306-17.958-4.113-4.11-11.652-8.354-22.619-12.732-20.014-7.416-34.408-16.083-43.182-26-8.773-10.007-13.16-21.8-13.16-35.381 0-16.44 5.941-29.618 17.821-39.536 11.972-10.007 27.143-15.01 45.512-15.01 12.246 0 23.168 2.546 32.763 7.639 9.596 5.004 16.953 12.107 22.071 21.309 5.209 9.203 7.814 19.656 7.814 31.361h-40.166c0-9.114-2.01-16.038-6.032-20.773-3.929-4.825-9.641-7.237-17.135-7.237-7.037 0-12.521 2.055-16.45 6.165-3.93 4.02-5.895 9.47-5.895 16.35 0 5.361 2.193 10.23 6.58 14.608 4.387 4.289 12.155 8.756 23.305 13.402 19.465 6.88 33.585 15.323 42.359 25.33 8.864 10.006 13.297 22.738 13.297 38.195 0 16.976-5.529 30.244-16.587 39.804-11.059 9.56-26.092 14.34-45.101 14.34-12.886 0-24.63-2.591-35.231-7.773-10.601-5.182-18.917-12.598-24.949-22.247-5.94-9.65-8.911-21.041-8.911-34.175h40.44c0 11.257 2.239 19.433 6.717 24.525 4.478 5.093 11.79 7.639 21.934 7.639 14.074 0 21.111-7.281 21.111-21.845z" fill="#fff"/></svg>