<svg width="113" height="118" fill="none" xmlns="http://www.w3.org/2000/svg"><path d="M7.663 117.103H1.001V81.072h6.662v36.031zM19.767 117.103h-6.662V91.722h6.662v25.381zM12.8 85.153c0-1.032.329-1.876.986-2.533.656-.657 1.532-.986 2.627-.986 1.095 0 1.97.329 2.627.986.657.657.986 1.501.986 2.533 0 1.017-.329 1.861-.986 2.534-.641.672-1.517 1.008-2.627 1.008-1.11 0-1.994-.336-2.65-1.008-.642-.673-.963-1.517-.963-2.534zM35.156 117.572c-3.41 0-6.068-1.016-7.976-3.049-1.908-2.033-2.862-4.942-2.862-8.727v-2.017c0-4.004.876-7.092 2.628-9.266 1.751-2.174 4.261-3.26 7.53-3.26 3.19 0 5.59 1.024 7.201 3.072 1.611 2.033 2.432 5.052 2.464 9.055v3.261H30.934c.093 1.877.508 3.253 1.243 4.129.735.86 1.869 1.29 3.401 1.29 2.221 0 4.074-.759 5.56-2.276l2.604 4.012c-.813 1.126-1.994 2.041-3.542 2.744-1.549.688-3.23 1.032-5.044 1.032zm-4.175-15.576h6.638v-.61c-.031-1.517-.281-2.666-.75-3.448-.47-.782-1.283-1.173-2.44-1.173s-2.002.415-2.534 1.243c-.516.83-.82 2.158-.915 3.988zM47.002 103.638c0-4.16.704-7.264 2.112-9.313 1.407-2.048 3.456-3.073 6.146-3.073 1.955 0 3.581.845 4.879 2.534V81.07h6.686v36.032h-6.03l-.304-2.58c-1.36 2.033-3.112 3.049-5.255 3.049-2.658 0-4.691-1.016-6.099-3.049-1.392-2.033-2.103-5.02-2.135-8.961v-1.924zm6.662 1.666c0 2.502.266 4.254.798 5.254.532.986 1.431 1.478 2.698 1.478 1.314 0 2.307-.586 2.979-1.759V98.689c-.657-1.251-1.642-1.877-2.956-1.877-1.22 0-2.111.493-2.674 1.478-.563.985-.845 2.737-.845 5.254v1.76zM80.149 107.321l-1.783 1.994v7.788h-6.639V81.072h6.639v19.47l.821-1.22 4.598-7.6h7.905l-7.366 10.462 8.07 14.919h-7.6l-4.645-9.782zM103.498 117.572c-3.41 0-6.068-1.016-7.976-3.049-1.908-2.033-2.862-4.942-2.862-8.727v-2.017c0-4.004.876-7.092 2.627-9.266 1.752-2.174 4.262-3.26 7.53-3.26 3.191 0 5.591 1.024 7.202 3.072 1.611 2.033 2.432 5.052 2.463 9.055v3.261H99.275c.094 1.877.508 3.253 1.243 4.129.735.86 1.869 1.29 3.402 1.29 2.221 0 4.074-.759 5.559-2.276l2.604 4.012c-.813 1.126-1.994 2.041-3.542 2.744-1.548.688-3.229 1.032-5.043 1.032zm-4.176-15.576h6.639v-.61c-.032-1.517-.282-2.666-.751-3.448-.469-.782-1.282-1.173-2.44-1.173-1.157 0-2.001.415-2.533 1.243-.516.83-.821 2.158-.915 3.988zM12.292 65.26c0-.562-.274-1.078-.82-1.548-.533-.484-1.729-1.133-3.59-1.947-2.737-1.11-4.621-2.26-5.653-3.448C1.212 57.13.704 55.651.704 53.883c0-2.22.797-4.05 2.392-5.489 1.611-1.454 3.738-2.181 6.381-2.181 2.784 0 5.012.719 6.686 2.158 1.673 1.439 2.51 3.37 2.51 5.794h-6.639c0-2.064-.86-3.096-2.58-3.096-.704 0-1.283.218-1.736.656-.454.438-.68 1.048-.68 1.83 0 .563.25 1.063.75 1.501.5.423 1.681 1.033 3.542 1.83 2.706 1.001 4.614 2.12 5.724 3.355 1.126 1.22 1.69 2.807 1.69 4.762 0 2.267-.853 4.09-2.558 5.465-1.704 1.377-3.94 2.065-6.709 2.065-1.86 0-3.503-.36-4.926-1.08-1.423-.734-2.541-1.75-3.355-3.049A7.877 7.877 0 010 64.205h6.31c.032 1.157.297 2.025.798 2.604.516.579 1.353.868 2.51.868 1.783 0 2.674-.806 2.674-2.416zM22.458 58.552c0-3.847.907-6.866 2.721-9.055 1.814-2.19 4.324-3.284 7.53-3.284 3.237 0 5.763 1.094 7.577 3.284 1.814 2.19 2.721 5.223 2.721 9.102v1.618c0 3.863-.899 6.881-2.697 9.055-1.799 2.174-4.317 3.26-7.554 3.26-3.253 0-5.786-1.086-7.6-3.26-1.799-2.19-2.698-5.223-2.698-9.102v-1.618zm6.662 1.665c0 4.535 1.212 6.803 3.636 6.803 2.236 0 3.44-1.892 3.613-5.677l.023-2.791c0-2.315-.32-4.027-.962-5.138-.64-1.126-1.548-1.689-2.72-1.689-1.127 0-2.01.563-2.652 1.69-.625 1.11-.938 2.822-.938 5.137v1.665zM60 69.741c-1.377 1.861-3.222 2.792-5.537 2.792-2.33 0-4.097-.798-5.301-2.393-1.204-1.61-1.806-3.949-1.806-7.014V46.682h6.638V63.29c.032 2.471.852 3.707 2.463 3.707 1.517 0 2.612-.657 3.284-1.97V46.681h6.686v25.382h-6.24L60 69.74zM78.868 66.55h10.04v5.514H70.986v-4.152l9.806-15.694H71.22v-5.536h17.547v4.011l-9.9 15.858zM105.713 72.064c-.188-.391-.375-1.048-.563-1.97-1.189 1.626-2.799 2.439-4.832 2.439-2.127 0-3.894-.704-5.302-2.112-1.392-1.407-2.088-3.229-2.088-5.465 0-2.659.845-4.715 2.534-6.17 1.704-1.454 4.152-2.197 7.342-2.228h2.018v-2.041c0-1.142-.196-1.947-.587-2.416-.391-.47-.962-.704-1.712-.704-1.658 0-2.487.97-2.487 2.909h-6.639c0-2.346.876-4.277 2.628-5.794 1.767-1.533 3.995-2.3 6.685-2.3 2.784 0 4.934.728 6.451 2.182 1.533 1.439 2.299 3.503 2.299 6.193v11.94c.031 2.19.344 3.902.939 5.138v.399h-6.686zm-3.918-4.739c.735 0 1.361-.149 1.877-.446.516-.297.899-.649 1.15-1.055v-5.278h-1.596c-1.126 0-2.017.36-2.674 1.079-.641.72-.962 1.68-.962 2.885 0 1.877.735 2.815 2.205 2.815zM9.97 30.988c1.923 0 2.9-1.25 2.932-3.753h6.24c-.031 2.768-.884 5.004-2.557 6.709s-3.832 2.557-6.475 2.557c-3.268 0-5.762-1.017-7.483-3.05C.907 31.418.031 28.424 0 24.467V22.45c0-3.988.844-7.03 2.533-9.126 1.705-2.095 4.215-3.143 7.53-3.143 2.8 0 5.005.868 6.616 2.604 1.61 1.72 2.432 4.168 2.463 7.342h-6.24c-.016-1.423-.25-2.518-.704-3.284-.453-.766-1.204-1.15-2.252-1.15-1.157 0-1.986.415-2.486 1.244-.5.813-.767 2.4-.798 4.762v2.58c0 2.065.102 3.511.305 4.34.203.813.54 1.415 1.009 1.806.469.376 1.134.563 1.994.563zM35.669 36.501c-3.41 0-6.068-1.017-7.976-3.05-1.908-2.033-2.862-4.942-2.862-8.726v-2.018c0-4.003.876-7.092 2.627-9.266 1.752-2.173 4.262-3.26 7.53-3.26 3.19 0 5.591 1.024 7.202 3.073 1.61 2.033 2.432 5.051 2.463 9.055v3.26H31.446c.094 1.877.508 3.253 1.244 4.13.735.86 1.868 1.29 3.4 1.29 2.222 0 4.075-.76 5.56-2.276l2.604 4.011c-.813 1.126-1.994 2.041-3.542 2.745-1.548.688-3.23 1.032-5.043 1.032zm-4.176-15.576h6.639v-.61c-.032-1.517-.282-2.667-.75-3.449-.47-.782-1.283-1.172-2.44-1.172-1.158 0-2.002.414-2.534 1.243-.516.829-.821 2.158-.915 3.988zM35.434 0h7.46l-6.522 7.272h-5.536L35.434 0zM62.165 29.229c0-.563-.273-1.08-.82-1.548-.533-.485-1.729-1.134-3.59-1.947-2.737-1.11-4.621-2.26-5.653-3.449-1.017-1.188-1.525-2.666-1.525-4.433 0-2.221.797-4.05 2.392-5.49 1.611-1.454 3.738-2.181 6.381-2.181 2.784 0 5.012.72 6.686 2.158 1.673 1.439 2.51 3.37 2.51 5.794h-6.639c0-2.064-.86-3.096-2.58-3.096-.704 0-1.283.219-1.736.656-.454.438-.68 1.048-.68 1.83 0 .563.25 1.064.75 1.502.5.422 1.681 1.032 3.542 1.83 2.706 1 4.614 2.118 5.724 3.354 1.126 1.22 1.69 2.807 1.69 4.762 0 2.267-.853 4.09-2.558 5.466-1.704 1.376-3.94 2.064-6.709 2.064-1.86 0-3.503-.36-4.926-1.08-1.423-.734-2.541-1.75-3.355-3.049a7.878 7.878 0 01-1.196-4.199h6.31c.032 1.158.297 2.026.798 2.604.516.579 1.353.868 2.51.868 1.783 0 2.674-.805 2.674-2.416zM87.325 36.032c-.188-.391-.376-1.048-.564-1.97-1.188 1.626-2.799 2.439-4.832 2.439-2.127 0-3.894-.704-5.301-2.111-1.392-1.408-2.088-3.23-2.088-5.466 0-2.659.844-4.715 2.533-6.17 1.705-1.454 4.152-2.197 7.343-2.228h2.017v-2.04c0-1.143-.195-1.948-.586-2.417-.391-.47-.962-.704-1.713-.704-1.657 0-2.486.97-2.486 2.909h-6.639c0-2.346.876-4.277 2.627-5.794 1.767-1.533 3.996-2.3 6.686-2.3 2.784 0 4.934.728 6.45 2.183 1.533 1.438 2.3 3.503 2.3 6.192v11.94c.031 2.19.344 3.902.938 5.138v.399h-6.686zm-3.918-4.739c.735 0 1.36-.148 1.877-.445.516-.298.899-.65 1.15-1.056v-5.278h-1.596c-1.126 0-2.017.36-2.674 1.079-.642.72-.962 1.681-.962 2.885 0 1.877.735 2.815 2.205 2.815zM112.93 17.054l-2.205-.188c-1.815 0-3.042.798-3.683 2.393v16.773h-6.663V10.65h6.264l.187 2.745c1.048-2.143 2.495-3.214 4.34-3.214.751 0 1.361.102 1.83.305l-.07 6.568z" fill="#fff"/></svg>