<svg width="34" height="34" fill="none" xmlns="http://www.w3.org/2000/svg"><path fill-rule="evenodd" clip-rule="evenodd" d="M0 2.84A2.84 2.84 0 012.84 0h28.318a2.84 2.84 0 012.84 2.84v28.318a2.84 2.84 0 01-2.84 2.84H2.84A2.84 2.84 0 010 31.158V2.84zm13.458 10.122h4.604v2.313c.663-1.33 2.364-2.526 4.919-2.526 4.897 0 6.06 2.648 6.06 7.506v8.998h-4.959v-7.891c0-2.767-.663-4.327-2.351-4.327-2.341 0-3.315 1.682-3.315 4.327v7.89h-4.958v-16.29zm-8.5 16.078h4.958V12.75H4.958v16.29zm5.666-21.603a3.187 3.187 0 11-6.373 0 3.187 3.187 0 016.373 0z" fill="#fff"/></svg>